<svg xmlns="http://www.w3.org/2000/svg" width="720" height="210" fill="none" viewBox="0 0 720 210"><rect width="720" height="210" fill="#E4E4E4"/><path fill="#2C2B2B" d="M157.501 145.031V140.589C160.201 140.589 162.719 139.136 164.068 136.799L167.915 139.019C165.775 142.727 161.784 145.031 157.501 145.031Z"/><path fill="#2C2B2B" d="M111.947 127.474L108.101 125.253L127.091 92.3607C129.233 88.6514 133.223 86.3474 137.505 86.3474H175.487V90.7887H137.505C134.805 90.7887 132.289 92.242 130.938 94.5807L111.947 127.474Z"/><path fill="#2C2B2B" d="M175.278 126.265L171.441 124.028L180.486 108.51C180.507 108.473 180.566 108.373 180.487 108.234C180.407 108.096 180.291 108.096 180.249 108.096H149.273C146.573 108.096 144.055 109.549 142.705 111.888L134.409 126.257L130.563 124.037L138.859 109.666C141.001 105.958 144.991 103.654 149.273 103.654H180.249C181.957 103.654 183.486 104.54 184.338 106.022C185.19 107.505 185.185 109.27 184.323 110.748L175.278 126.265Z"/><path fill="#2C2B2B" d="M141.114 145.031H125.179C120.897 145.031 116.907 142.727 114.766 139.019L98.606 111.028C96.4647 107.319 96.4647 102.711 98.606 99.0027L114.766 71.0107C116.907 67.3027 120.897 65 125.179 65H157.502C161.783 65 165.774 67.3027 167.914 71.0107L164.069 73.232C162.718 70.8933 160.202 69.4413 157.502 69.4413H125.179C122.479 69.4413 119.962 70.8933 118.613 73.232L102.451 101.224C101.102 103.563 101.102 106.468 102.451 108.807L118.613 136.799C119.962 139.136 122.479 140.589 125.179 140.589H141.114C141.866 140.589 142.569 140.185 142.947 139.535L163.141 104.76L166.981 106.991L146.787 141.765C145.618 143.78 143.443 145.031 141.114 145.031Z"/><path fill="#2C2B2B" d="M261.46 103.563V109.443H239.462V129.088H232.822V83.156H266.44V89.036H239.462V103.563H261.46Z"/><path fill="#2C2B2B" d="M291.826 97.2678V103.148H291.549C290.166 102.18 288.437 101.626 286.5 101.626C280.274 101.626 277.3 105.914 277.3 114.353V129.088H271.42V96.7145H276.401L276.54 101.902H276.678C278.614 98.0291 282.004 96.0225 286.914 96.0225C289.06 96.0225 290.72 96.5758 291.826 97.2678Z"/><path fill="#2C2B2B" d="M300.334 109.927H322.193C321.362 104.669 317.211 101.28 311.333 101.28C305.798 101.28 301.441 104.739 300.334 109.927ZM300.334 114.837C301.163 120.856 306.006 124.523 313.338 124.523C318.111 124.523 322.262 123 325.306 120.095H325.582V126.044C322.677 128.396 318.25 129.779 313.199 129.779C301.786 129.779 294.385 123.069 294.385 112.901C294.385 103.009 301.371 96.0227 311.263 96.0227C321.223 96.0227 327.657 102.179 327.657 111.587V114.837H300.334Z"/><path fill="#2C2B2B" d="M334.641 96.7141H340.521V129.087H334.641V96.7141ZM341.421 86.546C341.421 88.8286 339.83 90.4193 337.547 90.4193C335.265 90.4193 333.673 88.8286 333.673 86.546C333.673 84.2633 335.265 82.6715 337.547 82.6715C339.83 82.6715 341.421 84.2633 341.421 86.546Z"/><path fill="#2C2B2B" d="M375.868 112.763C375.868 105.915 371.233 101.28 364.661 101.28C358.021 101.28 353.454 105.915 353.454 112.763C353.454 119.611 358.021 124.245 364.661 124.245C371.233 124.245 375.868 119.611 375.868 112.763ZM381.54 126.528C381.54 136.765 375.037 142.923 364.038 142.923C358.366 142.923 353.525 141.331 350.55 138.633V132.477H350.826C353.454 135.728 358.09 137.665 363.416 137.665C371.233 137.665 375.66 133.584 375.66 126.183V124.592H375.521C372.962 127.704 368.95 129.503 363.693 129.503C354.285 129.503 347.506 122.585 347.506 112.763C347.506 102.94 354.285 96.0225 363.693 96.0225C369.365 96.0225 373.792 98.2359 376.213 101.903H376.352L376.56 96.7145H381.54V126.528Z"/><path fill="#2C2B2B" d="M420.829 110.272V129.087H414.949V110.964C414.949 104.876 411.629 101.28 406.163 101.28C400.146 101.28 396.549 105.429 396.549 112.277V129.087H390.669V80.6655H396.549V100.727H396.687C398.969 97.6828 402.774 96.0215 407.547 96.0215C415.778 96.0215 420.829 101.417 420.829 110.272Z"/><path fill="#2C2B2B" d="M447.736 128.603C446.284 129.364 444.347 129.779 441.856 129.779C435.078 129.779 431.272 125.767 431.272 118.504V101.834H425.324V96.7136H431.411L432.311 87.9296H437.154V96.7136H447.598V101.834H437.154V118.366C437.154 122.239 439.228 124.522 442.687 124.522C444.486 124.522 446.146 124.038 447.459 122.655H447.736V128.603Z"/><path fill="#2C2B2B" d="M491.105 129.087H480.868V92.2873H467.172V83.1566H504.732V92.2873H491.105V129.087Z"/><path fill="#2C2B2B" d="M529.84 97.1291V105.984H529.495C528.111 105.016 526.381 104.462 524.375 104.462C518.841 104.462 516.351 107.852 516.351 115.114V129.088H507.289V96.5758H514.829L515.244 101.626H515.383C517.181 97.8211 520.364 95.8838 525.067 95.8838C527.143 95.8838 528.872 96.3691 529.84 97.1291Z"/><path fill="#2C2B2B" d="M557.23 129.087L556.885 124.453H556.746C554.809 127.842 551.35 129.779 546.648 129.779C538.692 129.779 533.988 124.591 533.988 115.806V96.5755H543.05V114.769C543.05 119.265 545.264 121.755 549.068 121.755C553.218 121.755 555.709 118.919 555.709 113.869V96.5755H564.77V129.087H557.23Z"/><path fill="#2C2B2B" d="M595.135 97.9598V106.606H594.79C592.645 104.461 589.325 103.354 585.106 103.354C581.578 103.354 579.849 104.393 579.849 106.398C579.849 107.85 580.955 108.474 585.245 108.75C593.89 109.304 597.279 112.348 597.279 119.196C597.279 125.836 592.299 129.778 583.93 129.778C578.534 129.778 574.383 128.81 571.617 126.874V118.157H572.031C574.591 120.925 578.465 122.309 583.514 122.309C587.042 122.309 588.771 121.27 588.771 119.196C588.771 117.466 587.387 116.774 582.823 116.36C574.591 115.598 571.339 113.108 571.339 106.676C571.339 100.104 576.666 95.8838 584.898 95.8838C588.841 95.8838 592.577 96.6451 595.135 97.9598Z"/><path fill="#2C2B2B" d="M623.219 128.672C621.629 129.433 619.622 129.779 616.855 129.779C608.969 129.779 604.75 125.491 604.75 117.259V104.255H599.354V96.5761H605.026L606.202 87.4454H613.811V96.5761H623.15V104.255H613.811V116.913C613.811 120.025 615.471 121.756 618.307 121.756C619.969 121.756 621.49 121.34 622.873 119.888H623.219V128.672Z"/></svg>